<?xml version="1.0" encoding="UTF-8"?>
<svg width="1200pt" height="1200pt" version="1.1" viewBox="0 0 1200 1200" xmlns="http://www.w3.org/2000/svg">
 <path d="m247.06 352.94c0-19.492 15.801-35.293 35.293-35.293 19.492 0 35.297 15.801 35.297 35.293v405.88c0 71.266-73.168 123.53-158.82 123.53s-158.82-52.262-158.82-123.53c0-71.27 73.168-123.53 158.82-123.53 32.266 0 62.758 7.418 88.234 20.469zm247.06 441.18c0 19.492-15.801 35.293-35.293 35.293-19.492 0-35.293-15.801-35.293-35.293v-370.59c0-19.496 15.801-35.297 35.293-35.297 19.492 0 35.293 15.801 35.293 35.297zm282.35-141.18c0 19.492-15.801 35.293-35.293 35.293-19.492 0-35.293-15.801-35.293-35.293v-88.234c0-19.492 15.801-35.297 35.293-35.297 19.492 0 35.293 15.805 35.293 35.297zm-141.18 70.59c0 19.492-15.801 35.293-35.293 35.293s-35.293-15.801-35.293-35.293v-229.41c0-19.492 15.801-35.293 35.293-35.293s35.293 15.801 35.293 35.293zm282.36 70.586c0 19.492-15.805 35.293-35.297 35.293-19.492 0-35.293-15.801-35.293-35.293v-370.59c0-19.496 15.801-35.297 35.293-35.297 19.492 0 35.297 15.801 35.297 35.297zm282.35-141.18c0 19.492-15.801 35.293-35.293 35.293-19.492 0-35.297-15.801-35.297-35.293v-88.234c0-19.492 15.805-35.297 35.297-35.297 19.492 0 35.293 15.805 35.293 35.297zm-141.18 70.59c0 19.492-15.801 35.293-35.293 35.293-19.496 0-35.297-15.801-35.297-35.293v-229.41c0-19.492 15.801-35.293 35.297-35.293 19.492 0 35.293 15.801 35.293 35.293z"/>
</svg>
